<svg width="182" height="182" viewBox="0 0 182 182" fill="none" xmlns="http://www.w3.org/2000/svg">
<path d="M91 182C141.258 182 182 141.258 182 91C182 40.7421 141.258 0 91 0C40.7421 0 0 40.7421 0 91C0 141.258 40.7421 182 91 182Z" fill="url(#paint0_linear)"/>
<path fill-rule="evenodd" clip-rule="evenodd" d="M41.1916 90.0391C67.7199 78.4811 85.4097 70.8614 94.2608 67.1799C119.532 56.6686 124.784 54.8427 128.206 54.7824C128.959 54.7691 130.642 54.9557 131.733 55.8404C132.653 56.5874 132.907 57.5965 133.028 58.3048C133.149 59.013 133.3 60.6264 133.18 61.8871C131.81 76.2763 125.885 111.195 122.87 127.311C121.594 134.131 119.083 136.417 116.651 136.641C111.366 137.127 107.354 133.149 102.235 129.793C94.2261 124.543 89.7014 121.275 81.9271 116.152C72.9426 110.231 78.7669 106.977 83.8872 101.659C85.2272 100.267 108.511 79.089 108.962 77.1678C109.018 76.9275 109.07 76.0318 108.538 75.5589C108.006 75.086 107.221 75.2477 106.654 75.3763C105.851 75.5586 93.056 84.0155 68.2698 100.747C64.638 103.241 61.3485 104.456 58.4012 104.392C55.152 104.322 48.9019 102.555 44.2556 101.045C38.5567 99.1922 34.0274 98.2128 34.4218 95.0667C34.6272 93.428 36.8838 91.7521 41.1916 90.0391Z" fill="white"/>
<defs>
<linearGradient id="paint0_linear" x1="91" y1="0" x2="91" y2="180.65" gradientUnits="userSpaceOnUse">
<stop stop-color="#2AABEE"/>
<stop offset="1" stop-color="#229ED9"/>
</linearGradient>
</defs>
</svg>
