<svg width="252" height="48" viewBox="0 0 252 48" fill="none" xmlns="http://www.w3.org/2000/svg">
<rect width="252" height="48" rx="10" fill="#45A29E"/>
<path d="M67.6406 36H64.248V24.1699H51.3457V36H47.9707V10.4062H51.3457V21.4102H64.248V10.4062H67.6406V36ZM84.8672 36C84.6797 35.625 84.5273 34.957 84.4102 33.9961C82.8984 35.5664 81.0938 36.3516 78.9961 36.3516C77.1211 36.3516 75.5801 35.8242 74.373 34.7695C73.1777 33.7031 72.5801 32.3555 72.5801 30.7266C72.5801 28.7461 73.3301 27.2109 74.8301 26.1211C76.3418 25.0195 78.4629 24.4688 81.1934 24.4688H84.3574V22.9746C84.3574 21.8379 84.0176 20.9355 83.3379 20.2676C82.6582 19.5879 81.6562 19.248 80.332 19.248C79.1719 19.248 78.1992 19.541 77.4141 20.127C76.6289 20.7129 76.2363 21.4219 76.2363 22.2539H72.9668C72.9668 21.3047 73.3008 20.3906 73.9688 19.5117C74.6484 18.6211 75.5625 17.918 76.7109 17.4023C77.8711 16.8867 79.1426 16.6289 80.5254 16.6289C82.7168 16.6289 84.4336 17.1797 85.6758 18.2812C86.918 19.3711 87.5625 20.877 87.6094 22.7988V31.5527C87.6094 33.2988 87.832 34.6875 88.2773 35.7188V36H84.8672ZM79.4707 33.5215C80.4902 33.5215 81.457 33.2578 82.3711 32.7305C83.2852 32.2031 83.9473 31.5176 84.3574 30.6738V26.7715H81.8086C77.8242 26.7715 75.832 27.9375 75.832 30.2695C75.832 31.2891 76.1719 32.0859 76.8516 32.6602C77.5312 33.2344 78.4043 33.5215 79.4707 33.5215ZM108.264 36H105.012V19.6699H96.2578V36H92.9883V16.9805H108.264V36ZM125.789 16.9805H129.041V36H125.789V22.1309L117.018 36H113.766V16.9805H117.018V30.8672L125.789 16.9805ZM141.891 33.6973C143.051 33.6973 144.064 33.3457 144.932 32.6426C145.799 31.9395 146.279 31.0605 146.373 30.0059H149.449C149.391 31.0957 149.016 32.1328 148.324 33.1172C147.633 34.1016 146.707 34.8867 145.547 35.4727C144.398 36.0586 143.18 36.3516 141.891 36.3516C139.301 36.3516 137.238 35.4902 135.703 33.7676C134.18 32.0332 133.418 29.666 133.418 26.666V26.1211C133.418 24.2695 133.758 22.623 134.438 21.1816C135.117 19.7402 136.09 18.6211 137.355 17.8242C138.633 17.0273 140.139 16.6289 141.873 16.6289C144.006 16.6289 145.775 17.2676 147.182 18.5449C148.6 19.8223 149.355 21.4805 149.449 23.5195H146.373C146.279 22.2891 145.811 21.2812 144.967 20.4961C144.135 19.6992 143.104 19.3008 141.873 19.3008C140.221 19.3008 138.938 19.8984 138.023 21.0938C137.121 22.2773 136.67 23.9941 136.67 26.2441V26.8594C136.67 29.0508 137.121 30.7383 138.023 31.9219C138.926 33.1055 140.215 33.6973 141.891 33.6973ZM164.848 36C164.66 35.625 164.508 34.957 164.391 33.9961C162.879 35.5664 161.074 36.3516 158.977 36.3516C157.102 36.3516 155.561 35.8242 154.354 34.7695C153.158 33.7031 152.561 32.3555 152.561 30.7266C152.561 28.7461 153.311 27.2109 154.811 26.1211C156.322 25.0195 158.443 24.4688 161.174 24.4688H164.338V22.9746C164.338 21.8379 163.998 20.9355 163.318 20.2676C162.639 19.5879 161.637 19.248 160.312 19.248C159.152 19.248 158.18 19.541 157.395 20.127C156.609 20.7129 156.217 21.4219 156.217 22.2539H152.947C152.947 21.3047 153.281 20.3906 153.949 19.5117C154.629 18.6211 155.543 17.918 156.691 17.4023C157.852 16.8867 159.123 16.6289 160.506 16.6289C162.697 16.6289 164.414 17.1797 165.656 18.2812C166.898 19.3711 167.543 20.877 167.59 22.7988V31.5527C167.59 33.2988 167.812 34.6875 168.258 35.7188V36H164.848ZM159.451 33.5215C160.471 33.5215 161.438 33.2578 162.352 32.7305C163.266 32.2031 163.928 31.5176 164.338 30.6738V26.7715H161.789C157.805 26.7715 155.812 27.9375 155.812 30.2695C155.812 31.2891 156.152 32.0859 156.832 32.6602C157.512 33.2344 158.385 33.5215 159.451 33.5215ZM186.539 19.6172H180.158V36H176.906V19.6172H170.648V16.9805H186.539V19.6172ZM193.254 23.5371H198.193C200.35 23.5605 202.055 24.123 203.309 25.2246C204.562 26.3262 205.189 27.8203 205.189 29.707C205.189 31.6055 204.545 33.1289 203.256 34.2773C201.967 35.4258 200.232 36 198.053 36H190.002V16.9805H193.254V23.5371ZM193.254 26.1914V33.3457H198.088C199.307 33.3457 200.25 33.0352 200.918 32.4141C201.586 31.7812 201.92 30.9199 201.92 29.8301C201.92 28.7754 201.592 27.9141 200.936 27.2461C200.291 26.5664 199.383 26.2148 198.211 26.1914H193.254Z" fill="black"/>
</svg>
