<svg width="101" height="89" viewBox="0 0 101 89" fill="none" xmlns="http://www.w3.org/2000/svg">
<path d="M99.4887 62.8003L81.2887 44.6003C83.0887 40.0003 82.0887 34.6003 78.2887 30.8003C74.2887 26.8003 68.2887 26.0003 63.4887 28.2003L72.0887 36.8003L66.0887 42.8003L57.2887 34.2003C54.8887 39.0003 55.8887 45.0003 59.8887 49.0003C63.6887 52.8003 69.0887 53.8003 73.6887 52.0003L91.8887 70.2003C92.6887 71.0003 93.8887 71.0003 94.6887 70.2003L99.2887 65.6003C100.289 64.8003 100.289 63.4003 99.4887 62.8003Z" fill="black"/>
<path d="M38.7 12.08C37.34 5.18 31.28 0 24 0C18.22 0 13.2 3.28 10.7 8.08C4.68 8.72 0 13.82 0 20C0 26.62 5.38 32 12 32H38C43.52 32 48 27.52 48 22C48 16.72 43.9 12.44 38.7 12.08ZM34 18L24 28L14 18H20V10H28V18H34Z" fill="black"/>
<path d="M74 85V55H34V85H30V89H78V85H74ZM58 85H50V83H58V85ZM70 79H38V59H70V79Z" fill="black"/>
</svg>
