<svg width="200" height="200" viewBox="0 0 200 200" fill="none" xmlns="http://www.w3.org/2000/svg">
<rect x="18" y="35" width="161" height="107" fill="#C4C4C4"/>
<path d="M99.9813 57.5718C85.925 57.5718 74.5312 68.9718 74.5312 83.0374C74.5312 97.103 85.925 108.503 99.9813 108.503C114.038 108.503 125.431 97.103 125.431 83.0374C125.431 68.9718 114.034 57.5718 99.9813 57.5718ZM99.9844 95.8437C92.9156 95.8437 87.1844 90.1124 87.1844 83.0437C87.1844 75.9749 92.9156 70.2437 99.9844 70.2437C107.053 70.2437 112.784 75.9749 112.784 83.0437C112.784 90.1124 107.053 95.8437 99.9844 95.8437Z" fill="black"/>
<path d="M190.625 14.7156H9.375C4.21875 14.7156 0 18.9343 0 24.0906V141.8C0 146.956 4.21875 151.175 9.375 151.175H84.375V172.787H55.8594V185.287H144.141V172.787H115.625V151.175H190.625C195.781 151.175 200 146.956 200 141.8V24.0906C200 18.9343 195.781 14.7156 190.625 14.7156ZM152.416 90.9031L140.781 92.075C139.716 96.9156 137.806 101.434 135.219 105.487L142.634 114.559L131.519 125.681L122.463 118.266C118.406 120.862 113.888 122.781 109.041 123.856L107.878 135.475H100.019H99.9531H92.0938L90.9313 123.856C86.0812 122.787 81.5625 120.869 77.5062 118.269L68.4563 125.678L57.3406 114.556L64.7531 105.491C62.1656 101.431 60.25 96.9156 59.1844 92.0687L47.55 90.9062V75.1749L59.1844 74.0093C60.2531 69.1656 62.1688 64.6437 64.7531 60.5906L57.3406 51.525L68.4563 40.4031L77.5062 47.8124C81.5594 45.2187 86.0781 43.2999 90.9281 42.2249L92.0906 30.6062H99.95H100.016H107.875L109.037 42.2249C113.884 43.2968 118.403 45.2187 122.456 47.8124L131.512 40.3968L142.628 51.5187L135.213 60.5875C137.797 64.6437 139.712 69.1593 140.778 74.0031L152.416 75.1656V90.9031Z" fill="black"/>
</svg>
