<svg width="221" height="221" viewBox="0 0 221 221" fill="none" xmlns="http://www.w3.org/2000/svg">
<path opacity="0.2" d="M186.469 31.0781V196.828C186.469 204.457 180.285 210.641 172.656 210.641H48.3438C40.7153 210.641 34.5312 204.457 34.5312 196.828V31.0781C34.5312 23.4497 40.7153 17.2656 48.3438 17.2656H172.656C180.285 17.2656 186.469 23.4497 186.469 31.0781Z" fill="black"/>
<path d="M186.469 27.625V193.375C186.469 201.003 180.285 207.188 172.656 207.188H48.3438C40.7153 207.188 34.5312 201.003 34.5312 193.375V27.625C34.5312 19.9966 40.7153 13.8125 48.3438 13.8125H172.656C180.285 13.8125 186.469 19.9966 186.469 27.625Z" fill="#8E8E8E"/>
<path opacity="0.5" d="M110.5 41.4375C83.8004 41.4375 62.1562 63.0817 62.1562 89.7812V138.125H110.5C137.2 138.125 158.844 116.481 158.844 89.7812C158.844 63.0817 137.2 41.4375 110.5 41.4375ZM110.5 69.0625C115.995 69.0625 121.265 71.2454 125.15 75.1309C129.036 79.0164 131.219 84.2863 131.219 89.7812C131.219 95.2762 129.036 100.546 125.15 104.432C121.265 108.317 115.995 110.5 110.5 110.5C105.005 110.5 99.7351 108.317 95.8496 104.432C91.9641 100.546 89.7812 95.2762 89.7812 89.7812C89.7812 84.2863 91.9641 79.0164 95.8496 75.1309C99.7351 71.2454 105.005 69.0625 110.5 69.0625Z" fill="black"/>
<path opacity="0.2" d="M48.3438 13.8125C40.6916 13.8125 34.5312 19.9729 34.5312 27.625V31.0781C34.5312 23.426 40.6916 17.2656 48.3438 17.2656H172.656C180.308 17.2656 186.469 23.426 186.469 31.0781V27.625C186.469 19.9729 180.308 13.8125 172.656 13.8125H48.3438Z" fill="white"/>
<path d="M138.685 77.051C138.118 75.798 136.872 75 135.5 75H121.5V29.5C121.5 27.568 119.932 26 118 26H104C102.068 26 100.5 27.568 100.5 29.5V75H86.5001C85.1281 75 83.8821 75.805 83.3151 77.051C82.7411 78.304 82.9651 79.767 83.8681 80.803L108.368 108.803C109.033 109.566 109.992 110 111 110C112.008 110 112.967 109.559 113.632 108.803L138.132 80.803C139.042 79.774 139.252 78.304 138.685 77.051Z" fill="black"/>
<path d="M149.5 103V124H72.5V103H58.5V131C58.5 134.871 61.636 138 65.5 138H156.5C160.371 138 163.5 134.871 163.5 131V103H149.5Z" fill="black"/>
</svg>
