<svg width="221" height="221" viewBox="0 0 221 221" fill="none" xmlns="http://www.w3.org/2000/svg">
<path opacity="0.2" d="M186.469 31.0781V196.828C186.469 204.457 180.285 210.641 172.656 210.641H48.3438C40.7153 210.641 34.5312 204.457 34.5312 196.828V31.0781C34.5312 23.4497 40.7153 17.2656 48.3438 17.2656H172.656C180.285 17.2656 186.469 23.4497 186.469 31.0781Z" fill="black"/>
<path d="M186.469 27.625V193.375C186.469 201.003 180.285 207.188 172.656 207.188H48.3438C40.7153 207.188 34.5312 201.003 34.5312 193.375V27.625C34.5312 19.9966 40.7153 13.8125 48.3438 13.8125H172.656C180.285 13.8125 186.469 19.9966 186.469 27.625Z" fill="#8E8E8E"/>
<path opacity="0.5" d="M110.5 41.4375C83.8004 41.4375 62.1562 63.0817 62.1562 89.7812V138.125H110.5C137.2 138.125 158.844 116.481 158.844 89.7812C158.844 63.0817 137.2 41.4375 110.5 41.4375ZM110.5 69.0625C115.995 69.0625 121.265 71.2454 125.15 75.1309C129.036 79.0164 131.219 84.2863 131.219 89.7812C131.219 95.2762 129.036 100.546 125.15 104.432C121.265 108.317 115.995 110.5 110.5 110.5C105.005 110.5 99.7351 108.317 95.8496 104.432C91.9641 100.546 89.7812 95.2762 89.7812 89.7812C89.7812 84.2863 91.9641 79.0164 95.8496 75.1309C99.7351 71.2454 105.005 69.0625 110.5 69.0625Z" fill="black"/>
<path opacity="0.2" d="M48.3438 13.8125C40.6916 13.8125 34.5312 19.9729 34.5312 27.625V31.0781C34.5312 23.426 40.6916 17.2656 48.3438 17.2656H172.656C180.308 17.2656 186.469 23.426 186.469 31.0781V27.625C186.469 19.9729 180.308 13.8125 172.656 13.8125H48.3438Z" fill="white"/>
<path d="M164.438 104.25H128.812C126.846 104.25 125.25 105.846 125.25 107.812C125.25 109.779 126.846 111.375 128.812 111.375H156.012C148 128.208 130.886 139.875 111 139.875C85.8807 139.875 65.1577 121.286 61.6915 97.125H54.4916C58.0043 125.233 81.9371 147 111 147C132.475 147 151.157 135.116 160.875 117.574V143.438C160.875 145.404 162.471 147 164.438 147C166.404 147 168 145.404 168 143.438V107.812C168 104.029 164.438 104.25 164.438 104.25ZM57.5625 75.75H93.1875C95.154 75.75 96.75 74.154 96.75 72.1875C96.75 70.221 95.154 68.625 93.1875 68.625H65.9665C73.9714 51.7815 91.1105 40.125 111 40.125C136.119 40.125 156.842 58.7141 160.309 82.875H167.508C163.996 54.7632 140.063 33 111 33C89.5252 33 70.8435 44.8845 61.125 62.4263V36.5625C61.125 34.596 59.529 33 57.5625 33C55.596 33 54 34.596 54 36.5625V72.1875C54 75.6395 57.5625 75.75 57.5625 75.75Z" fill="black"/>
</svg>
